<mxfile host="app.diagrams.net" agent="Mozilla/5.0 (X11; Ubuntu; Linux x86_64; rv:138.0) Gecko/20100101 Firefox/138.0" version="27.0.6">
  <diagram name="Page-1" id="Ux_hmwxhhsq3mp5FmAYR">
    <mxGraphModel dx="1426" dy="737" grid="1" gridSize="10" guides="1" tooltips="1" connect="1" arrows="1" fold="1" page="1" pageScale="1" pageWidth="827" pageHeight="1169" math="0" shadow="0">
      <root>
        <mxCell id="0" />
        <mxCell id="1" parent="0" />
        <mxCell id="BoM1s3GKUmok-ClIGxu0-20" value="" style="edgeStyle=orthogonalEdgeStyle;rounded=0;orthogonalLoop=1;jettySize=auto;html=1;" parent="1" source="BoM1s3GKUmok-ClIGxu0-1" target="BoM1s3GKUmok-ClIGxu0-3" edge="1">
          <mxGeometry relative="1" as="geometry" />
        </mxCell>
        <mxCell id="BoM1s3GKUmok-ClIGxu0-1" value="Create Access Authorization" style="rounded=0;whiteSpace=wrap;html=1;" parent="1" vertex="1">
          <mxGeometry x="230" y="180" width="120" height="60" as="geometry" />
        </mxCell>
        <mxCell id="BoM1s3GKUmok-ClIGxu0-13" style="edgeStyle=orthogonalEdgeStyle;rounded=0;orthogonalLoop=1;jettySize=auto;html=1;" parent="1" source="BoM1s3GKUmok-ClIGxu0-3" target="BoM1s3GKUmok-ClIGxu0-5" edge="1">
          <mxGeometry relative="1" as="geometry" />
        </mxCell>
        <mxCell id="BoM1s3GKUmok-ClIGxu0-34" value="" style="edgeStyle=orthogonalEdgeStyle;rounded=0;orthogonalLoop=1;jettySize=auto;html=1;" parent="1" source="BoM1s3GKUmok-ClIGxu0-3" target="BoM1s3GKUmok-ClIGxu0-33" edge="1">
          <mxGeometry relative="1" as="geometry" />
        </mxCell>
        <mxCell id="BoM1s3GKUmok-ClIGxu0-3" value="Create &lt;br&gt;Access Grant" style="rounded=0;whiteSpace=wrap;html=1;" parent="1" vertex="1">
          <mxGeometry x="230" y="270" width="120" height="60" as="geometry" />
        </mxCell>
        <mxCell id="BoM1s3GKUmok-ClIGxu0-4" value="Alice" style="text;html=1;align=center;verticalAlign=middle;whiteSpace=wrap;rounded=0;fontSize=16;fontStyle=1" parent="1" vertex="1">
          <mxGeometry x="260" y="130" width="60" height="30" as="geometry" />
        </mxCell>
        <mxCell id="BoM1s3GKUmok-ClIGxu0-22" value="" style="edgeStyle=orthogonalEdgeStyle;rounded=0;orthogonalLoop=1;jettySize=auto;html=1;" parent="1" source="BoM1s3GKUmok-ClIGxu0-5" target="BoM1s3GKUmok-ClIGxu0-16" edge="1">
          <mxGeometry relative="1" as="geometry" />
        </mxCell>
        <mxCell id="BoM1s3GKUmok-ClIGxu0-5" value="Store locally&lt;br&gt;Access Grant" style="rounded=0;whiteSpace=wrap;html=1;" parent="1" vertex="1">
          <mxGeometry x="580" y="270" width="120" height="60" as="geometry" />
        </mxCell>
        <mxCell id="BoM1s3GKUmok-ClIGxu0-12" value="Send &lt;br&gt;Create Activity" style="rounded=0;whiteSpace=wrap;html=1;fillColor=#d5e8d4;strokeColor=#82b366;" parent="1" vertex="1">
          <mxGeometry x="404" y="270" width="120" height="60" as="geometry" />
        </mxCell>
        <mxCell id="BoM1s3GKUmok-ClIGxu0-14" value="Bob" style="text;html=1;align=center;verticalAlign=middle;whiteSpace=wrap;rounded=0;fontSize=16;fontStyle=1" parent="1" vertex="1">
          <mxGeometry x="610" y="50" width="60" height="30" as="geometry" />
        </mxCell>
        <mxCell id="BoM1s3GKUmok-ClIGxu0-26" value="" style="edgeStyle=orthogonalEdgeStyle;rounded=0;orthogonalLoop=1;jettySize=auto;html=1;" parent="1" source="BoM1s3GKUmok-ClIGxu0-15" target="BoM1s3GKUmok-ClIGxu0-25" edge="1">
          <mxGeometry relative="1" as="geometry" />
        </mxCell>
        <mxCell id="BoM1s3GKUmok-ClIGxu0-15" value="Register app" style="rounded=0;whiteSpace=wrap;html=1;" parent="1" vertex="1">
          <mxGeometry x="580" y="90" width="120" height="60" as="geometry" />
        </mxCell>
        <mxCell id="BoM1s3GKUmok-ClIGxu0-24" style="edgeStyle=orthogonalEdgeStyle;rounded=0;orthogonalLoop=1;jettySize=auto;html=1;" parent="1" source="BoM1s3GKUmok-ClIGxu0-16" target="BoM1s3GKUmok-ClIGxu0-18" edge="1">
          <mxGeometry relative="1" as="geometry">
            <Array as="points">
              <mxPoint x="380" y="480" />
              <mxPoint x="380" y="480" />
            </Array>
          </mxGeometry>
        </mxCell>
        <mxCell id="JkFzIGdOIcT_2U3Hhvhh-4" style="edgeStyle=orthogonalEdgeStyle;rounded=0;orthogonalLoop=1;jettySize=auto;html=1;" parent="1" source="BoM1s3GKUmok-ClIGxu0-16" target="BoM1s3GKUmok-ClIGxu0-29" edge="1">
          <mxGeometry relative="1" as="geometry" />
        </mxCell>
        <mxCell id="BoM1s3GKUmok-ClIGxu0-16" value="Look for Access Authorizations with interop:All scope" style="rounded=0;whiteSpace=wrap;html=1;" parent="1" vertex="1">
          <mxGeometry x="580" y="450" width="120" height="60" as="geometry" />
        </mxCell>
        <mxCell id="BoM1s3GKUmok-ClIGxu0-17" value="Call Delegation Issuance Endpoint" style="rounded=0;whiteSpace=wrap;html=1;fillColor=#d5e8d4;strokeColor=#82b366;" parent="1" vertex="1">
          <mxGeometry x="404" y="450" width="120" height="60" as="geometry" />
        </mxCell>
        <mxCell id="BoM1s3GKUmok-ClIGxu0-18" value="Create Delegated Access Grant" style="rounded=0;whiteSpace=wrap;html=1;" parent="1" vertex="1">
          <mxGeometry x="230" y="450" width="120" height="60" as="geometry" />
        </mxCell>
        <mxCell id="BoM1s3GKUmok-ClIGxu0-25" value="Create Access Authorization for app" style="rounded=0;whiteSpace=wrap;html=1;" parent="1" vertex="1">
          <mxGeometry x="580" y="180" width="120" height="60" as="geometry" />
        </mxCell>
        <mxCell id="JkFzIGdOIcT_2U3Hhvhh-5" style="edgeStyle=orthogonalEdgeStyle;rounded=0;orthogonalLoop=1;jettySize=auto;html=1;" parent="1" source="BoM1s3GKUmok-ClIGxu0-29" target="BoM1s3GKUmok-ClIGxu0-31" edge="1">
          <mxGeometry relative="1" as="geometry" />
        </mxCell>
        <mxCell id="BoM1s3GKUmok-ClIGxu0-29" value="Store Delegated&lt;br&gt;Access Grant" style="rounded=0;whiteSpace=wrap;html=1;" parent="1" vertex="1">
          <mxGeometry x="580" y="540" width="120" height="60" as="geometry" />
        </mxCell>
        <mxCell id="BoM1s3GKUmok-ClIGxu0-31" value="Attach Delegated Access Grant to App Registration" style="rounded=0;whiteSpace=wrap;html=1;" parent="1" vertex="1">
          <mxGeometry x="580" y="630" width="120" height="60" as="geometry" />
        </mxCell>
        <mxCell id="BoM1s3GKUmok-ClIGxu0-33" value="Attach Access Grant to Social Agent Registration" style="rounded=0;whiteSpace=wrap;html=1;" parent="1" vertex="1">
          <mxGeometry x="230" y="360" width="120" height="60" as="geometry" />
        </mxCell>
        <mxCell id="BoM1s3GKUmok-ClIGxu0-37" value="" style="edgeStyle=orthogonalEdgeStyle;rounded=0;orthogonalLoop=1;jettySize=auto;html=1;" parent="1" source="BoM1s3GKUmok-ClIGxu0-35" target="BoM1s3GKUmok-ClIGxu0-36" edge="1">
          <mxGeometry relative="1" as="geometry" />
        </mxCell>
        <mxCell id="BoM1s3GKUmok-ClIGxu0-35" value="Delete Access Authorization" style="rounded=0;whiteSpace=wrap;html=1;" parent="1" vertex="1">
          <mxGeometry x="229" y="1290" width="120" height="60" as="geometry" />
        </mxCell>
        <mxCell id="BoM1s3GKUmok-ClIGxu0-40" style="edgeStyle=orthogonalEdgeStyle;rounded=0;orthogonalLoop=1;jettySize=auto;html=1;" parent="1" source="BoM1s3GKUmok-ClIGxu0-36" target="BoM1s3GKUmok-ClIGxu0-39" edge="1">
          <mxGeometry relative="1" as="geometry" />
        </mxCell>
        <mxCell id="BoM1s3GKUmok-ClIGxu0-48" value="" style="edgeStyle=orthogonalEdgeStyle;rounded=0;orthogonalLoop=1;jettySize=auto;html=1;" parent="1" source="BoM1s3GKUmok-ClIGxu0-36" target="BoM1s3GKUmok-ClIGxu0-47" edge="1">
          <mxGeometry relative="1" as="geometry" />
        </mxCell>
        <mxCell id="BoM1s3GKUmok-ClIGxu0-36" value="Delete&lt;br&gt;Access Grant" style="rounded=0;whiteSpace=wrap;html=1;" parent="1" vertex="1">
          <mxGeometry x="229" y="1380" width="120" height="60" as="geometry" />
        </mxCell>
        <mxCell id="BoM1s3GKUmok-ClIGxu0-38" value="Send &lt;br&gt;Delete Activity" style="rounded=0;whiteSpace=wrap;html=1;fillColor=#d5e8d4;strokeColor=#82b366;" parent="1" vertex="1">
          <mxGeometry x="403" y="1380" width="120" height="60" as="geometry" />
        </mxCell>
        <mxCell id="BoM1s3GKUmok-ClIGxu0-42" value="" style="edgeStyle=orthogonalEdgeStyle;rounded=0;orthogonalLoop=1;jettySize=auto;html=1;" parent="1" source="BoM1s3GKUmok-ClIGxu0-39" target="BoM1s3GKUmok-ClIGxu0-41" edge="1">
          <mxGeometry relative="1" as="geometry" />
        </mxCell>
        <mxCell id="BoM1s3GKUmok-ClIGxu0-39" value="Remove local copy&lt;br&gt;of Access Grant" style="rounded=0;whiteSpace=wrap;html=1;" parent="1" vertex="1">
          <mxGeometry x="579" y="1380" width="120" height="60" as="geometry" />
        </mxCell>
        <mxCell id="BoM1s3GKUmok-ClIGxu0-46" style="edgeStyle=orthogonalEdgeStyle;rounded=0;orthogonalLoop=1;jettySize=auto;html=1;" parent="1" source="BoM1s3GKUmok-ClIGxu0-41" target="BoM1s3GKUmok-ClIGxu0-45" edge="1">
          <mxGeometry relative="1" as="geometry" />
        </mxCell>
        <mxCell id="JkFzIGdOIcT_2U3Hhvhh-7" style="edgeStyle=orthogonalEdgeStyle;rounded=0;orthogonalLoop=1;jettySize=auto;html=1;" parent="1" source="BoM1s3GKUmok-ClIGxu0-41" target="JkFzIGdOIcT_2U3Hhvhh-6" edge="1">
          <mxGeometry relative="1" as="geometry" />
        </mxCell>
        <mxCell id="BoM1s3GKUmok-ClIGxu0-41" value="Look for related Delegated Access Grants" style="rounded=0;whiteSpace=wrap;html=1;" parent="1" vertex="1">
          <mxGeometry x="579" y="1560" width="120" height="60" as="geometry" />
        </mxCell>
        <mxCell id="BoM1s3GKUmok-ClIGxu0-43" value="Delete Delegated Access Grant" style="rounded=0;whiteSpace=wrap;html=1;fillColor=#d5e8d4;strokeColor=#82b366;" parent="1" vertex="1">
          <mxGeometry x="403" y="1560" width="120" height="60" as="geometry" />
        </mxCell>
        <mxCell id="BoM1s3GKUmok-ClIGxu0-45" value="Delete Delegated&lt;br&gt;Access Grant" style="rounded=0;whiteSpace=wrap;html=1;" parent="1" vertex="1">
          <mxGeometry x="229" y="1560" width="120" height="60" as="geometry" />
        </mxCell>
        <mxCell id="BoM1s3GKUmok-ClIGxu0-47" value="Detach Access Grant from Social Agent Registration" style="rounded=0;whiteSpace=wrap;html=1;" parent="1" vertex="1">
          <mxGeometry x="229" y="1470" width="120" height="60" as="geometry" />
        </mxCell>
        <mxCell id="JkFzIGdOIcT_2U3Hhvhh-1" value="Scenario 1:&lt;br&gt;Alice shares a project with Bob" style="rounded=0;whiteSpace=wrap;html=1;fontSize=20;spacing=7;" parent="1" vertex="1">
          <mxGeometry x="40" y="180" width="140" height="330" as="geometry" />
        </mxCell>
        <mxCell id="JkFzIGdOIcT_2U3Hhvhh-2" value="Scenario 3:&lt;br&gt;Alice removes her authorization" style="rounded=0;whiteSpace=wrap;html=1;fontSize=20;spacing=7;" parent="1" vertex="1">
          <mxGeometry x="40" y="1290" width="140" height="330" as="geometry" />
        </mxCell>
        <mxCell id="JkFzIGdOIcT_2U3Hhvhh-6" value="Remove Delegated Access Grant from App Registration" style="rounded=0;whiteSpace=wrap;html=1;" parent="1" vertex="1">
          <mxGeometry x="579" y="1650" width="120" height="60" as="geometry" />
        </mxCell>
        <mxCell id="JkFzIGdOIcT_2U3Hhvhh-24" value="" style="edgeStyle=orthogonalEdgeStyle;rounded=0;orthogonalLoop=1;jettySize=auto;html=1;" parent="1" source="JkFzIGdOIcT_2U3Hhvhh-25" target="JkFzIGdOIcT_2U3Hhvhh-28" edge="1">
          <mxGeometry relative="1" as="geometry" />
        </mxCell>
        <mxCell id="JkFzIGdOIcT_2U3Hhvhh-25" value="Regenerate Access Authorization" style="rounded=0;whiteSpace=wrap;html=1;" parent="1" vertex="1">
          <mxGeometry x="230" y="770" width="120" height="60" as="geometry" />
        </mxCell>
        <mxCell id="JkFzIGdOIcT_2U3Hhvhh-26" style="edgeStyle=orthogonalEdgeStyle;rounded=0;orthogonalLoop=1;jettySize=auto;html=1;" parent="1" source="JkFzIGdOIcT_2U3Hhvhh-28" target="JkFzIGdOIcT_2U3Hhvhh-31" edge="1">
          <mxGeometry relative="1" as="geometry" />
        </mxCell>
        <mxCell id="JkFzIGdOIcT_2U3Hhvhh-27" value="" style="edgeStyle=orthogonalEdgeStyle;rounded=0;orthogonalLoop=1;jettySize=auto;html=1;" parent="1" source="JkFzIGdOIcT_2U3Hhvhh-28" target="JkFzIGdOIcT_2U3Hhvhh-37" edge="1">
          <mxGeometry relative="1" as="geometry" />
        </mxCell>
        <mxCell id="JkFzIGdOIcT_2U3Hhvhh-28" value="Regenerate&lt;br&gt;Access Grant" style="rounded=0;whiteSpace=wrap;html=1;" parent="1" vertex="1">
          <mxGeometry x="230" y="860" width="120" height="60" as="geometry" />
        </mxCell>
        <mxCell id="JkFzIGdOIcT_2U3Hhvhh-29" value="Send &lt;br&gt;Create Activity" style="rounded=0;whiteSpace=wrap;html=1;fillColor=#d5e8d4;strokeColor=#82b366;" parent="1" vertex="1">
          <mxGeometry x="404" y="860" width="120" height="60" as="geometry" />
        </mxCell>
        <mxCell id="JkFzIGdOIcT_2U3Hhvhh-41" style="edgeStyle=orthogonalEdgeStyle;rounded=0;orthogonalLoop=1;jettySize=auto;html=1;" parent="1" source="JkFzIGdOIcT_2U3Hhvhh-31" target="JkFzIGdOIcT_2U3Hhvhh-40" edge="1">
          <mxGeometry relative="1" as="geometry" />
        </mxCell>
        <mxCell id="JkFzIGdOIcT_2U3Hhvhh-31" value="Delete previous version of Access Grant" style="rounded=0;whiteSpace=wrap;html=1;" parent="1" vertex="1">
          <mxGeometry x="580" y="860" width="120" height="60" as="geometry" />
        </mxCell>
        <mxCell id="JkFzIGdOIcT_2U3Hhvhh-33" style="edgeStyle=orthogonalEdgeStyle;rounded=0;orthogonalLoop=1;jettySize=auto;html=1;" parent="1" source="JkFzIGdOIcT_2U3Hhvhh-34" target="JkFzIGdOIcT_2U3Hhvhh-39" edge="1">
          <mxGeometry relative="1" as="geometry" />
        </mxCell>
        <mxCell id="JkFzIGdOIcT_2U3Hhvhh-45" style="edgeStyle=orthogonalEdgeStyle;rounded=0;orthogonalLoop=1;jettySize=auto;html=1;" parent="1" edge="1">
          <mxGeometry relative="1" as="geometry">
            <mxPoint x="580" y="1060" as="sourcePoint" />
            <mxPoint x="349" y="1060" as="targetPoint" />
          </mxGeometry>
        </mxCell>
        <mxCell id="JkFzIGdOIcT_2U3Hhvhh-34" value="Look for related Delegated Access Grants" style="rounded=0;whiteSpace=wrap;html=1;" parent="1" vertex="1">
          <mxGeometry x="580" y="1040" width="120" height="60" as="geometry" />
        </mxCell>
        <mxCell id="JkFzIGdOIcT_2U3Hhvhh-37" value="Update Access Grant from Social Agent Registration" style="rounded=0;whiteSpace=wrap;html=1;" parent="1" vertex="1">
          <mxGeometry x="230" y="950" width="120" height="60" as="geometry" />
        </mxCell>
        <mxCell id="JkFzIGdOIcT_2U3Hhvhh-38" value="Scenario 2:&lt;br&gt;Alice shares another project with Bob" style="rounded=0;whiteSpace=wrap;html=1;fontSize=20;spacing=7;" parent="1" vertex="1">
          <mxGeometry x="41" y="770" width="140" height="330" as="geometry" />
        </mxCell>
        <mxCell id="JkFzIGdOIcT_2U3Hhvhh-39" value="Update Delegated Access Grant from App Registration" style="rounded=0;whiteSpace=wrap;html=1;" parent="1" vertex="1">
          <mxGeometry x="580" y="1130" width="120" height="60" as="geometry" />
        </mxCell>
        <mxCell id="JkFzIGdOIcT_2U3Hhvhh-42" style="edgeStyle=orthogonalEdgeStyle;rounded=0;orthogonalLoop=1;jettySize=auto;html=1;" parent="1" source="JkFzIGdOIcT_2U3Hhvhh-40" target="JkFzIGdOIcT_2U3Hhvhh-34" edge="1">
          <mxGeometry relative="1" as="geometry" />
        </mxCell>
        <mxCell id="JkFzIGdOIcT_2U3Hhvhh-40" value="Store new Access Grant" style="rounded=0;whiteSpace=wrap;html=1;" parent="1" vertex="1">
          <mxGeometry x="580" y="950" width="120" height="60" as="geometry" />
        </mxCell>
        <mxCell id="oGEGimaUcheZujSPRgou-2" style="edgeStyle=orthogonalEdgeStyle;rounded=0;orthogonalLoop=1;jettySize=auto;html=1;" edge="1" parent="1">
          <mxGeometry relative="1" as="geometry">
            <mxPoint x="350" y="1080" as="sourcePoint" />
            <mxPoint x="581" y="1080" as="targetPoint" />
          </mxGeometry>
        </mxCell>
        <mxCell id="JkFzIGdOIcT_2U3Hhvhh-43" value="Call Delegation Issuance Endpoint" style="rounded=0;whiteSpace=wrap;html=1;fillColor=#d5e8d4;strokeColor=#82b366;" parent="1" vertex="1">
          <mxGeometry x="403" y="1040" width="120" height="60" as="geometry" />
        </mxCell>
        <mxCell id="JkFzIGdOIcT_2U3Hhvhh-44" value="Create Delegated Access Grant" style="rounded=0;whiteSpace=wrap;html=1;" parent="1" vertex="1">
          <mxGeometry x="229" y="1040" width="120" height="60" as="geometry" />
        </mxCell>
      </root>
    </mxGraphModel>
  </diagram>
</mxfile>
